<?xml version="1.0" encoding="UTF-8" standalone="no"?>
<!DOCTYPE svg PUBLIC "-//W3C//DTD SVG 1.1//EN"
 "http://www.w3.org/Graphics/SVG/1.1/DTD/svg11.dtd">
<!-- Generated by graphviz version 2.26.3 (20100126.1600)
 -->
<!-- Title: controllers_diagram Pages: 1 -->
<svg width="692pt" height="463pt"
 viewBox="0.00 0.00 692.00 463.00" xmlns="http://www.w3.org/2000/svg" xmlns:xlink="http://www.w3.org/1999/xlink">
<g id="graph1" class="graph" transform="scale(1 1) rotate(0) translate(4 459)">
<title>controllers_diagram</title>
<polygon fill="white" stroke="white" points="-4,5 -4,-459 689,-459 689,5 -4,5"/>
<!-- _diagram_info -->
<g id="node1" class="node"><title>_diagram_info</title>
<text text-anchor="start" x="441" y="-438.3" font-family="Times Roman,serif" font-size="13.00">Controllers diagram</text>
<text text-anchor="start" x="441" y="-421.3" font-family="Times Roman,serif" font-size="13.00">Date: Nov 15 2013 &#45; 15:34</text>
<text text-anchor="start" x="441" y="-404.3" font-family="Times Roman,serif" font-size="13.00">Migration version: 20131115215600</text>
<text text-anchor="start" x="441" y="-387.3" font-family="Times Roman,serif" font-size="13.00">Generated by RailRoady 1.1.1</text>
<text text-anchor="start" x="441" y="-370.3" font-family="Times Roman,serif" font-size="13.00">http://railroady.prestonlee.com</text>
</g>
<!-- ViewquotasController -->
<g id="node2" class="node"><title>ViewquotasController</title>
<polyline fill="none" stroke="black" points="13,-1.5 156,-1.5 "/>
<path fill="none" stroke="black" d="M156,-1.5C162,-1.5 168,-7.5 168,-13.5"/>
<polyline fill="none" stroke="black" points="168,-13.5 168,-163.5 "/>
<path fill="none" stroke="black" d="M168,-163.5C168,-169.5 162,-175.5 156,-175.5"/>
<polyline fill="none" stroke="black" points="156,-175.5 13,-175.5 "/>
<path fill="none" stroke="black" d="M13,-175.5C7,-175.5 1,-169.5 1,-163.5"/>
<polyline fill="none" stroke="black" points="1,-163.5 1,-13.5 "/>
<path fill="none" stroke="black" d="M1,-13.5C1,-7.5 7,-1.5 13,-1.5"/>
<text text-anchor="middle" x="84.5" y="-158.9" font-family="Times Roman,serif" font-size="14.00">ViewquotasController</text>
<polyline fill="none" stroke="black" points="1,-149.5 168,-149.5 "/>
<text text-anchor="start" x="9" y="-132.9" font-family="Times Roman,serif" font-size="14.00">change_quota</text>
<text text-anchor="start" x="9" y="-114.9" font-family="Times Roman,serif" font-size="14.00">check_change_quota</text>
<text text-anchor="start" x="9" y="-96.9" font-family="Times Roman,serif" font-size="14.00">index</text>
<text text-anchor="start" x="9" y="-78.9" font-family="Times Roman,serif" font-size="14.00">set_current_directory</text>
<text text-anchor="start" x="9" y="-60.9" font-family="Times Roman,serif" font-size="14.00">set_user_name</text>
<polyline fill="none" stroke="black" points="1,-51.5 168,-51.5 "/>
<polyline fill="none" stroke="black" points="1,-27.5 168,-27.5 "/>
<text text-anchor="start" x="9" y="-10.9" font-family="Times Roman,serif" font-size="14.00">_layout</text>
</g>
<!-- DashboardController -->
<g id="node3" class="node"><title>DashboardController</title>
<polyline fill="none" stroke="black" points="332.935,-179.24 468.935,-179.24 "/>
<path fill="none" stroke="black" d="M468.935,-179.24C474.935,-179.24 480.935,-185.24 480.935,-191.24"/>
<polyline fill="none" stroke="black" points="480.935,-191.24 480.935,-269.24 "/>
<path fill="none" stroke="black" d="M480.935,-269.24C480.935,-275.24 474.935,-281.24 468.935,-281.24"/>
<polyline fill="none" stroke="black" points="468.935,-281.24 332.935,-281.24 "/>
<path fill="none" stroke="black" d="M332.935,-281.24C326.935,-281.24 320.935,-275.24 320.935,-269.24"/>
<polyline fill="none" stroke="black" points="320.935,-269.24 320.935,-191.24 "/>
<path fill="none" stroke="black" d="M320.935,-191.24C320.935,-185.24 326.935,-179.24 332.935,-179.24"/>
<text text-anchor="middle" x="400.935" y="-264.64" font-family="Times Roman,serif" font-size="14.00">DashboardController</text>
<polyline fill="none" stroke="black" points="320.935,-255.24 480.935,-255.24 "/>
<text text-anchor="start" x="328.935" y="-238.64" font-family="Times Roman,serif" font-size="14.00">index</text>
<polyline fill="none" stroke="black" points="320.935,-229.24 480.935,-229.24 "/>
<polyline fill="none" stroke="black" points="320.935,-205.24 480.935,-205.24 "/>
<text text-anchor="start" x="328.935" y="-188.64" font-family="Times Roman,serif" font-size="14.00">_layout</text>
</g>
<!-- ApplicationController -->
<g id="node4" class="node"><title>ApplicationController</title>
<polyline fill="none" stroke="black" points="197.328,-4.28791 402.328,-4.28791 "/>
<path fill="none" stroke="black" d="M402.328,-4.28791C408.328,-4.28791 414.328,-10.2879 414.328,-16.2879"/>
<polyline fill="none" stroke="black" points="414.328,-16.2879 414.328,-94.2879 "/>
<path fill="none" stroke="black" d="M414.328,-94.2879C414.328,-100.288 408.328,-106.288 402.328,-106.288"/>
<polyline fill="none" stroke="black" points="402.328,-106.288 197.328,-106.288 "/>
<path fill="none" stroke="black" d="M197.328,-106.288C191.328,-106.288 185.328,-100.288 185.328,-94.2879"/>
<polyline fill="none" stroke="black" points="185.328,-94.2879 185.328,-16.2879 "/>
<path fill="none" stroke="black" d="M185.328,-16.2879C185.328,-10.2879 191.328,-4.28791 197.328,-4.28791"/>
<text text-anchor="middle" x="299.828" y="-89.6879" font-family="Times Roman,serif" font-size="14.00">ApplicationController</text>
<polyline fill="none" stroke="black" points="185.328,-80.2879 414.328,-80.2879 "/>
<text text-anchor="start" x="193.328" y="-63.6879" font-family="Times Roman,serif" font-size="14.00">_one_time_conditions_valid_8?</text>
<polyline fill="none" stroke="black" points="185.328,-54.2879 414.328,-54.2879 "/>
<polyline fill="none" stroke="black" points="185.328,-30.2879 414.328,-30.2879 "/>
<text text-anchor="start" x="193.328" y="-13.6879" font-family="Times Roman,serif" font-size="14.00">_layout</text>
</g>
<!-- ApplicationController&#45;&gt;ViewquotasController -->
<g id="edge2" class="edge"><title>ApplicationController&#45;&gt;ViewquotasController</title>
<path fill="none" stroke="black" d="M185.229,-72.9636C179.504,-73.8466 173.805,-74.7256 168.198,-75.5904"/>
</g>
<!-- ApplicationController&#45;&gt;DashboardController -->
<g id="edge4" class="edge"><title>ApplicationController&#45;&gt;DashboardController</title>
<path fill="none" stroke="black" d="M329.344,-106.362C342.575,-129.257 358.147,-156.201 371.382,-179.103"/>
</g>
<!-- DashboardsController -->
<g id="node5" class="node"><title>DashboardsController</title>
<polyline fill="none" stroke="black" points="85.8078,-251.847 228.808,-251.847 "/>
<path fill="none" stroke="black" d="M228.808,-251.847C234.808,-251.847 240.808,-257.847 240.808,-263.847"/>
<polyline fill="none" stroke="black" points="240.808,-263.847 240.808,-341.847 "/>
<path fill="none" stroke="black" d="M240.808,-341.847C240.808,-347.847 234.808,-353.847 228.808,-353.847"/>
<polyline fill="none" stroke="black" points="228.808,-353.847 85.8078,-353.847 "/>
<path fill="none" stroke="black" d="M85.8078,-353.847C79.8078,-353.847 73.8078,-347.847 73.8078,-341.847"/>
<polyline fill="none" stroke="black" points="73.8078,-341.847 73.8078,-263.847 "/>
<path fill="none" stroke="black" d="M73.8078,-263.847C73.8078,-257.847 79.8078,-251.847 85.8078,-251.847"/>
<text text-anchor="middle" x="157.308" y="-337.247" font-family="Times Roman,serif" font-size="14.00">DashboardsController</text>
<polyline fill="none" stroke="black" points="73.8078,-327.847 240.808,-327.847 "/>
<text text-anchor="start" x="81.8078" y="-311.247" font-family="Times Roman,serif" font-size="14.00">index</text>
<polyline fill="none" stroke="black" points="73.8078,-301.847 240.808,-301.847 "/>
<polyline fill="none" stroke="black" points="73.8078,-277.847 240.808,-277.847 "/>
<text text-anchor="start" x="81.8078" y="-261.247" font-family="Times Roman,serif" font-size="14.00">_layout</text>
</g>
<!-- ApplicationController&#45;&gt;DashboardsController -->
<g id="edge6" class="edge"><title>ApplicationController&#45;&gt;DashboardsController</title>
<path fill="none" stroke="black" d="M270.297,-106.582C245.838,-149.07 211.25,-209.149 186.8,-251.618"/>
</g>
</g>
</svg>
