<?xml version="1.0" encoding="UTF-8" standalone="no"?>
<!DOCTYPE svg PUBLIC "-//W3C//DTD SVG 1.1//EN"
 "http://www.w3.org/Graphics/SVG/1.1/DTD/svg11.dtd">
<!-- Generated by graphviz version 2.26.3 (20100126.1600)
 -->
<!-- Title: models_diagram Pages: 1 -->
<svg width="553pt" height="336pt"
 viewBox="0.00 0.00 553.00 336.00" xmlns="http://www.w3.org/2000/svg" xmlns:xlink="http://www.w3.org/1999/xlink">
<g id="graph1" class="graph" transform="scale(1 1) rotate(0) translate(4 332)">
<title>models_diagram</title>
<polygon fill="white" stroke="white" points="-4,5 -4,-332 550,-332 550,5 -4,5"/>
<!-- _diagram_info -->
<g id="node1" class="node"><title>_diagram_info</title>
<text text-anchor="start" x="8" y="-311.8" font-family="Times Roman,serif" font-size="13.00">Models diagram</text>
<text text-anchor="start" x="8" y="-294.8" font-family="Times Roman,serif" font-size="13.00">Date: Nov 13 2013 &#45; 16:32</text>
<text text-anchor="start" x="8" y="-277.8" font-family="Times Roman,serif" font-size="13.00">Migration version: 20131106042151</text>
<text text-anchor="start" x="8" y="-260.8" font-family="Times Roman,serif" font-size="13.00">Generated by RailRoady 1.1.1</text>
<text text-anchor="start" x="8" y="-243.8" font-family="Times Roman,serif" font-size="13.00">http://railroady.prestonlee.com</text>
</g>
<!-- Usage -->
<g id="node2" class="node"><title>Usage</title>
<polyline fill="none" stroke="black" points="210.5,-1 351.5,-1 "/>
<path fill="none" stroke="black" d="M351.5,-1C357.5,-1 363.5,-7 363.5,-13"/>
<polyline fill="none" stroke="black" points="363.5,-13 363.5,-185 "/>
<path fill="none" stroke="black" d="M363.5,-185C363.5,-191 357.5,-197 351.5,-197"/>
<polyline fill="none" stroke="black" points="351.5,-197 210.5,-197 "/>
<path fill="none" stroke="black" d="M210.5,-197C204.5,-197 198.5,-191 198.5,-185"/>
<polyline fill="none" stroke="black" points="198.5,-185 198.5,-13 "/>
<path fill="none" stroke="black" d="M198.5,-13C198.5,-7 204.5,-1 210.5,-1"/>
<text text-anchor="middle" x="281" y="-180.4" font-family="Times Roman,serif" font-size="14.00">Usage</text>
<polyline fill="none" stroke="black" points="198.5,-171 363.5,-171 "/>
<text text-anchor="start" x="206.5" y="-154.4" font-family="Times Roman,serif" font-size="14.00">id :integer</text>
<text text-anchor="start" x="206.5" y="-136.4" font-family="Times Roman,serif" font-size="14.00">user :string</text>
<text text-anchor="start" x="206.5" y="-118.4" font-family="Times Roman,serif" font-size="14.00">directory :string</text>
<text text-anchor="start" x="206.5" y="-100.4" font-family="Times Roman,serif" font-size="14.00">date :string</text>
<text text-anchor="start" x="206.5" y="-82.4" font-family="Times Roman,serif" font-size="14.00">usage :integer</text>
<text text-anchor="start" x="206.5" y="-64.4" font-family="Times Roman,serif" font-size="14.00">created_at :datetime</text>
<text text-anchor="start" x="206.5" y="-46.4" font-family="Times Roman,serif" font-size="14.00">updated_at :datetime</text>
<text text-anchor="start" x="206.5" y="-28.4" font-family="Times Roman,serif" font-size="14.00">columnname :integer</text>
<text text-anchor="start" x="206.5" y="-10.4" font-family="Times Roman,serif" font-size="14.00">max :integer</text>
</g>
<!-- Quota -->
<g id="node3" class="node"><title>Quota</title>
<polyline fill="none" stroke="black" points="392.5,-28 533.5,-28 "/>
<path fill="none" stroke="black" d="M533.5,-28C539.5,-28 545.5,-34 545.5,-40"/>
<polyline fill="none" stroke="black" points="545.5,-40 545.5,-158 "/>
<path fill="none" stroke="black" d="M545.5,-158C545.5,-164 539.5,-170 533.5,-170"/>
<polyline fill="none" stroke="black" points="533.5,-170 392.5,-170 "/>
<path fill="none" stroke="black" d="M392.5,-170C386.5,-170 380.5,-164 380.5,-158"/>
<polyline fill="none" stroke="black" points="380.5,-158 380.5,-40 "/>
<path fill="none" stroke="black" d="M380.5,-40C380.5,-34 386.5,-28 392.5,-28"/>
<text text-anchor="middle" x="463" y="-153.4" font-family="Times Roman,serif" font-size="14.00">Quota</text>
<polyline fill="none" stroke="black" points="380.5,-144 545.5,-144 "/>
<text text-anchor="start" x="388.5" y="-127.4" font-family="Times Roman,serif" font-size="14.00">id :integer</text>
<text text-anchor="start" x="388.5" y="-109.4" font-family="Times Roman,serif" font-size="14.00">user :string</text>
<text text-anchor="start" x="388.5" y="-91.4" font-family="Times Roman,serif" font-size="14.00">quota :integer</text>
<text text-anchor="start" x="388.5" y="-73.4" font-family="Times Roman,serif" font-size="14.00">directory :string</text>
<text text-anchor="start" x="388.5" y="-55.4" font-family="Times Roman,serif" font-size="14.00">created_at :datetime</text>
<text text-anchor="start" x="388.5" y="-37.4" font-family="Times Roman,serif" font-size="14.00">updated_at :datetime</text>
</g>
<!-- ActiveRecord::Base -->
<g id="node4" class="node"><title>ActiveRecord::Base</title>
<ellipse fill="none" stroke="black" cx="372" cy="-281" rx="104.151" ry="18.3848"/>
<text text-anchor="middle" x="372" y="-277.4" font-family="Times Roman,serif" font-size="14.00">ActiveRecord::Base</text>
</g>
<!-- ActiveRecord::Base&#45;&gt;Usage -->
<g id="edge2" class="edge"><title>ActiveRecord::Base&#45;&gt;Usage</title>
<path fill="none" stroke="black" d="M362.774,-262.547C354.821,-246.642 342.673,-222.346 330.154,-197.308"/>
</g>
<!-- ActiveRecord::Base&#45;&gt;Quota -->
<g id="edge4" class="edge"><title>ActiveRecord::Base&#45;&gt;Quota</title>
<path fill="none" stroke="black" d="M381.226,-262.547C392.071,-240.858 410.716,-203.567 427.467,-170.066"/>
</g>
</g>
</svg>
