<?xml version="1.0" encoding="UTF-8" standalone="no"?>
<!DOCTYPE svg PUBLIC "-//W3C//DTD SVG 1.1//EN"
 "http://www.w3.org/Graphics/SVG/1.1/DTD/svg11.dtd">
<!-- Generated by graphviz version 2.26.3 (20100126.1600)
 -->
<!-- Title: models_diagram Pages: 1 -->
<svg width="553pt" height="354pt"
 viewBox="0.00 0.00 553.00 354.00" xmlns="http://www.w3.org/2000/svg" xmlns:xlink="http://www.w3.org/1999/xlink">
<g id="graph1" class="graph" transform="scale(1 1) rotate(0) translate(4 350)">
<title>models_diagram</title>
<polygon fill="white" stroke="white" points="-4,5 -4,-350 550,-350 550,5 -4,5"/>
<!-- _diagram_info -->
<g id="node1" class="node"><title>_diagram_info</title>
<text text-anchor="start" x="8" y="-329.8" font-family="Times Roman,serif" font-size="13.00">Models diagram</text>
<text text-anchor="start" x="8" y="-312.8" font-family="Times Roman,serif" font-size="13.00">Date: Nov 15 2013 &#45; 15:34</text>
<text text-anchor="start" x="8" y="-295.8" font-family="Times Roman,serif" font-size="13.00">Migration version: 20131115215600</text>
<text text-anchor="start" x="8" y="-278.8" font-family="Times Roman,serif" font-size="13.00">Generated by RailRoady 1.1.1</text>
<text text-anchor="start" x="8" y="-261.8" font-family="Times Roman,serif" font-size="13.00">http://railroady.prestonlee.com</text>
</g>
<!-- Usage -->
<g id="node2" class="node"><title>Usage</title>
<polyline fill="none" stroke="black" points="210.5,-1 351.5,-1 "/>
<path fill="none" stroke="black" d="M351.5,-1C357.5,-1 363.5,-7 363.5,-13"/>
<polyline fill="none" stroke="black" points="363.5,-13 363.5,-203 "/>
<path fill="none" stroke="black" d="M363.5,-203C363.5,-209 357.5,-215 351.5,-215"/>
<polyline fill="none" stroke="black" points="351.5,-215 210.5,-215 "/>
<path fill="none" stroke="black" d="M210.5,-215C204.5,-215 198.5,-209 198.5,-203"/>
<polyline fill="none" stroke="black" points="198.5,-203 198.5,-13 "/>
<path fill="none" stroke="black" d="M198.5,-13C198.5,-7 204.5,-1 210.5,-1"/>
<text text-anchor="middle" x="281" y="-198.4" font-family="Times Roman,serif" font-size="14.00">Usage</text>
<polyline fill="none" stroke="black" points="198.5,-189 363.5,-189 "/>
<text text-anchor="start" x="206.5" y="-172.4" font-family="Times Roman,serif" font-size="14.00">id :integer</text>
<text text-anchor="start" x="206.5" y="-154.4" font-family="Times Roman,serif" font-size="14.00">user :string</text>
<text text-anchor="start" x="206.5" y="-136.4" font-family="Times Roman,serif" font-size="14.00">directory :string</text>
<text text-anchor="start" x="206.5" y="-118.4" font-family="Times Roman,serif" font-size="14.00">date :string</text>
<text text-anchor="start" x="206.5" y="-100.4" font-family="Times Roman,serif" font-size="14.00">usage :integer</text>
<text text-anchor="start" x="206.5" y="-82.4" font-family="Times Roman,serif" font-size="14.00">created_at :datetime</text>
<text text-anchor="start" x="206.5" y="-64.4" font-family="Times Roman,serif" font-size="14.00">updated_at :datetime</text>
<text text-anchor="start" x="206.5" y="-46.4" font-family="Times Roman,serif" font-size="14.00">columnname :integer</text>
<text text-anchor="start" x="206.5" y="-28.4" font-family="Times Roman,serif" font-size="14.00">max :integer</text>
<text text-anchor="start" x="206.5" y="-10.4" font-family="Times Roman,serif" font-size="14.00">rate :float</text>
</g>
<!-- Quota -->
<g id="node3" class="node"><title>Quota</title>
<polyline fill="none" stroke="black" points="392.5,-37 533.5,-37 "/>
<path fill="none" stroke="black" d="M533.5,-37C539.5,-37 545.5,-43 545.5,-49"/>
<polyline fill="none" stroke="black" points="545.5,-49 545.5,-167 "/>
<path fill="none" stroke="black" d="M545.5,-167C545.5,-173 539.5,-179 533.5,-179"/>
<polyline fill="none" stroke="black" points="533.5,-179 392.5,-179 "/>
<path fill="none" stroke="black" d="M392.5,-179C386.5,-179 380.5,-173 380.5,-167"/>
<polyline fill="none" stroke="black" points="380.5,-167 380.5,-49 "/>
<path fill="none" stroke="black" d="M380.5,-49C380.5,-43 386.5,-37 392.5,-37"/>
<text text-anchor="middle" x="463" y="-162.4" font-family="Times Roman,serif" font-size="14.00">Quota</text>
<polyline fill="none" stroke="black" points="380.5,-153 545.5,-153 "/>
<text text-anchor="start" x="388.5" y="-136.4" font-family="Times Roman,serif" font-size="14.00">id :integer</text>
<text text-anchor="start" x="388.5" y="-118.4" font-family="Times Roman,serif" font-size="14.00">user :string</text>
<text text-anchor="start" x="388.5" y="-100.4" font-family="Times Roman,serif" font-size="14.00">quota :integer</text>
<text text-anchor="start" x="388.5" y="-82.4" font-family="Times Roman,serif" font-size="14.00">directory :string</text>
<text text-anchor="start" x="388.5" y="-64.4" font-family="Times Roman,serif" font-size="14.00">created_at :datetime</text>
<text text-anchor="start" x="388.5" y="-46.4" font-family="Times Roman,serif" font-size="14.00">updated_at :datetime</text>
</g>
<!-- ActiveRecord::Base -->
<g id="node4" class="node"><title>ActiveRecord::Base</title>
<ellipse fill="none" stroke="black" cx="372" cy="-299" rx="104.151" ry="18.3848"/>
<text text-anchor="middle" x="372" y="-295.4" font-family="Times Roman,serif" font-size="14.00">ActiveRecord::Base</text>
</g>
<!-- ActiveRecord::Base&#45;&gt;Usage -->
<g id="edge2" class="edge"><title>ActiveRecord::Base&#45;&gt;Usage</title>
<path fill="none" stroke="black" d="M363.109,-280.338C355.551,-264.475 344.036,-240.307 332.001,-215.045"/>
</g>
<!-- ActiveRecord::Base&#45;&gt;Quota -->
<g id="edge4" class="edge"><title>ActiveRecord::Base&#45;&gt;Quota</title>
<path fill="none" stroke="black" d="M380.891,-280.338C392.027,-256.965 411.752,-215.565 429.077,-179.201"/>
</g>
</g>
</svg>
